<?xml version="1.0" encoding="utf-8"?>
<!-- Generator: Adobe Illustrator 24.1.2, SVG Export Plug-In . SVG Version: 6.00 Build 0)  -->
<svg version="1.1" xmlns="http://www.w3.org/2000/svg" xmlns:xlink="http://www.w3.org/1999/xlink" x="0px" y="0px"
	 viewBox="0 0 58 58" style="enable-background:new 0 0 58 58;" xml:space="preserve">
<style type="text/css">
	.st0{display:none;}
	.st1{display:inline;}
	.st2{fill:none;stroke:#DCDCDC;stroke-width:2;stroke-miterlimit:10;}
	.st3{fill:none;stroke:#DCDCDC;stroke-width:2;stroke-miterlimit:10;}
	.st4{fill:none;stroke:#DCDCDC;stroke-miterlimit:10;}
	.st5{fill:none;}
	.st6{display:inline;fill:none;stroke:#DCDCDC;stroke-width:1;stroke-miterlimit:10;}
	.st7{display:inline;fill:none;}
	.st8{display:inline;fill:none;stroke:#DCDCDC;stroke-width:1;stroke-miterlimit:10;}
	.st9{display:inline;fill:none;stroke:#DCDCDC;stroke-miterlimit:10;}
</style>
<g id="Capa_1" class="st0">
	<g class="st1">
		<path d="M42.9,4.5c-0.5-2.3-2.5-4-4.9-4c-0.6,0-1,0.4-1,1s0.4,1,1,1c1.7,0,3,1.3,3,3s-1.3,3-3,3c-0.6,0-1,0.4-1,1s0.4,1,1,1
			c2.4,0,4.4-1.7,4.9-4H56v9H2v-9h14h3c0.6,0,1-0.4,1-1s-0.4-1-1-1h-1.8c0.4-1.2,1.5-2,2.8-2c1.7,0,3,1.3,3,3s-1.3,3-3,3
			c-0.6,0-1,0.4-1,1s0.4,1,1,1c2.8,0,5-2.2,5-5s-2.2-5-5-5c-2.4,0-4.4,1.7-4.9,4H0v13v40h58v-40v-13H42.9z M56,55.5H2v-38h54V55.5z"
			/>
		<path d="M26,2.5c1.7,0,3,1.3,3,3s-1.3,3-3,3c-0.6,0-1,0.4-1,1s0.4,1,1,1c2.8,0,5-2.2,5-5s-2.2-5-5-5c-0.6,0-1,0.4-1,1
			S25.4,2.5,26,2.5z"/>
		<path d="M32,2.5c1.7,0,3,1.3,3,3s-1.3,3-3,3c-0.6,0-1,0.4-1,1s0.4,1,1,1c2.8,0,5-2.2,5-5s-2.2-5-5-5c-0.6,0-1,0.4-1,1
			S31.4,2.5,32,2.5z"/>
		<path d="M13,33.5c3.3,0,6-2.7,6-6s-2.7-6-6-6s-6,2.7-6,6S9.7,33.5,13,33.5z M13,23.5c2.2,0,4,1.8,4,4s-1.8,4-4,4s-4-1.8-4-4
			S10.8,23.5,13,23.5z"/>
		<path d="M29,33.5c3.3,0,6-2.7,6-6s-2.7-6-6-6s-6,2.7-6,6S25.7,33.5,29,33.5z M29,23.5c2.2,0,4,1.8,4,4s-1.8,4-4,4s-4-1.8-4-4
			S26.8,23.5,29,23.5z"/>
		<path d="M45,33.5c3.3,0,6-2.7,6-6s-2.7-6-6-6s-6,2.7-6,6S41.7,33.5,45,33.5z M45,23.5c2.2,0,4,1.8,4,4s-1.8,4-4,4s-4-1.8-4-4
			S42.8,23.5,45,23.5z"/>
		<path d="M13,49.5c3.3,0,6-2.7,6-6s-2.7-6-6-6s-6,2.7-6,6S9.7,49.5,13,49.5z M13,39.5c2.2,0,4,1.8,4,4s-1.8,4-4,4s-4-1.8-4-4
			S10.8,39.5,13,39.5z"/>
		<path d="M29,49.5c3.3,0,6-2.7,6-6s-2.7-6-6-6s-6,2.7-6,6S25.7,49.5,29,49.5z M29,39.5c2.2,0,4,1.8,4,4s-1.8,4-4,4s-4-1.8-4-4
			S26.8,39.5,29,39.5z"/>
		<circle cx="45" cy="48.5" r="1"/>
		<circle cx="41" cy="47.5" r="1"/>
		<circle cx="49" cy="47.5" r="1"/>
		<circle cx="49" cy="39.5" r="1"/>
		<circle cx="41" cy="39.5" r="1"/>
		<circle cx="43" cy="41.5" r="1"/>
		<circle cx="47" cy="41.5" r="1"/>
		<circle cx="45" cy="43.5" r="1"/>
		<circle cx="43" cy="45.5" r="1"/>
		<circle cx="47" cy="45.5" r="1"/>
		<circle cx="50" cy="43.5" r="1"/>
		<circle cx="40" cy="43.5" r="1"/>
		<circle cx="45" cy="38.5" r="1"/>
	</g>
</g>
<g id="Layer_2" class="st0">
	<g class="st1">
		<path d="M49.5,8.6C44,3.2,36.8,0.1,29.1,0.1s-15,3-20.4,8.5c-5.5,5.5-8.5,12.7-8.5,20.4s3,15,8.5,20.4C14.1,55,21.4,58,29.1,58
			s15-3,20.4-8.5C55,44,58,36.8,58,29.1S55,14.1,49.5,8.6z M29.1,54.6C15,54.6,3.5,43.2,3.5,29.1S15,3.5,29.1,3.5S54.6,15,54.6,29.1
			S43.2,54.6,29.1,54.6z"/>
		<path d="M29.1,7c-12.2,0-22,9.9-22,22s9.9,22,22,22s22-9.9,22-22S41.2,7,29.1,7z M29.1,47.7c-10.3,0-18.6-8.4-18.6-18.6
			s8.4-18.6,18.6-18.6s18.6,8.4,18.6,18.6S39.4,47.7,29.1,47.7z"/>
		<path d="M34.2,24c0,0.9,0.8,1.7,1.7,1.7s1.7-0.8,1.7-1.7c0-1.9-1-3.7-2.7-5c-1.2-0.9-2.6-1.4-4.1-1.7v-1.8c0-0.9-0.8-1.7-1.7-1.7
			s-1.7,0.8-1.7,1.7v1.8c-1.5,0.2-3,0.8-4.1,1.7c-1.7,1.3-2.7,3.1-2.7,5s1,3.7,2.7,5c1.2,0.9,2.6,1.4,4.1,1.7v6.7
			c-2-0.5-3.4-1.7-3.4-3.2c0-0.9-0.8-1.7-1.7-1.7c-0.9,0-1.7,0.8-1.7,1.7c0,1.9,1,3.7,2.7,5c1.2,0.9,2.6,1.4,4.1,1.7v1.8
			c0,0.9,0.8,1.7,1.7,1.7s1.7-0.8,1.7-1.7v-1.8c1.5-0.2,3-0.8,4.1-1.7c1.7-1.3,2.7-3.1,2.7-5s-1-3.7-2.7-5c-1.2-0.9-2.6-1.4-4.1-1.7
			v-6.7C32.7,21.3,34.2,22.5,34.2,24L34.2,24z M24,24c0-1.4,1.4-2.7,3.4-3.2v6.4C25.4,26.7,24,25.4,24,24z M34.2,34.1
			c0,1.4-1.4,2.7-3.4,3.2v-6.4C32.7,31.4,34.2,32.7,34.2,34.1z"/>
	</g>
</g>
<g id="Layer_3">
	<circle class="st2" cx="29" cy="29" r="27"/>
	<circle class="st3" cx="29" cy="29" r="20.5"/>
	<line class="st3" x1="29" y1="15.9" x2="29" y2="42.4"/>
	<path class="st3" d="M36,23.8c0,0-1.1-4.5-6.9-4.5c0,0-6.4-0.7-7.1,4.5c-0.7,5.2,7,5.4,7,5.4s7,0.3,7,5s-7,5.1-7,5.1
		s-5.4,0.9-7-4.6"/>
	<circle class="st4" cx="29" cy="42.3" r="0.5"/>
	<circle class="st4" cx="29" cy="15.9" r="0.5"/>
	<circle class="st4" cx="36" cy="23.7" r="0.5"/>
	<circle class="st4" cx="22" cy="34.6" r="0.5"/>
</g>
<g id="Layer_5" class="st0">
	<g class="st1">
		<path class="st5" d="M12.6,22.1c0,9,7.4,16.4,16.4,16.4s16.4-7.4,16.4-16.4S38,5.7,29,5.7S12.6,13,12.6,22.1z M29,7.9
			c7.8,0,14.2,6.4,14.2,14.2S36.8,36.3,29,36.3s-14.2-6.4-14.2-14.2S21.2,7.9,29,7.9z"/>
		<path class="st5" d="M18.9,20.1l4.2,4.2l-1,5.9c-0.1,0.4,0.1,0.8,0.4,1.1c0.3,0.2,0.8,0.3,1.1,0.1l5.3-2.7l5.3,2.7
			c0.4,0.2,0.8,0.2,1.1-0.1c0.3-0.2,0.5-0.7,0.4-1.1l-1-5.9l4.2-4.2c0.3-0.3,0.4-0.7,0.3-1.1c-0.1-0.4-0.5-0.7-0.9-0.7l-5.9-0.9
			L30,12c-0.2-0.4-0.6-0.6-1-0.6c-0.4,0-0.8,0.2-1,0.6l-2.7,5.3l-5.9,0.9c-0.4,0.1-0.7,0.3-0.9,0.7C18.5,19.4,18.6,19.8,18.9,20.1z
			 M26.2,19.4c0.4-0.1,0.7-0.3,0.8-0.6L29,15l1.9,3.9c0.2,0.3,0.5,0.5,0.8,0.6l4.3,0.6l-3.1,3c-0.3,0.2-0.4,0.6-0.3,1l0.7,4.3
			l-3.8-2c-0.2-0.1-0.3-0.1-0.5-0.1c-0.2,0-0.3,0-0.5,0.1l-3.8,2l0.7-4.3c0.1-0.4-0.1-0.7-0.3-1l-3.1-3L26.2,19.4z"/>
		<path class="st5" d="M30.1,2.4c0,0.6-0.5,1.1-1.1,1.1S27.9,3,27.9,2.4s0.5-1.1,1.1-1.1S30.1,1.8,30.1,2.4z"/>
		<path class="st5" d="M23.8,1.9C14.7,4.3,8.2,12.6,8.2,22.1c0,5.9,2.5,11.5,6.8,15.4L8.5,49.1c-0.2,0.4-0.2,0.8,0.1,1.2
			c0.3,0.3,0.7,0.5,1.1,0.4l7.5-1.6l2.6,7.4c0.1,0.4,0.5,0.7,0.9,0.7s0.8-0.2,1-0.5L29,43.9l7.3,12.8c0.2,0.3,0.6,0.6,0.9,0.6
			c0,0,0.1,0,0.1,0c0.4,0,0.8-0.3,0.9-0.7l2.6-7.4l7.5,1.6c0.4,0.1,0.9-0.1,1.1-0.4c0.3-0.3,0.3-0.8,0.1-1.2l-6.6-11.6
			c4.4-3.9,6.8-9.5,6.8-15.4c0-9.5-6.4-17.8-15.6-20.1c-0.6-0.1-1.2,0.2-1.3,0.8c-0.1,0.6,0.2,1.2,0.8,1.3c8.2,2.1,14,9.5,14,18
			c0,10.3-8.4,18.6-18.6,18.6c-10.2,0-18.6-8.2-18.6-18.6c0-8.5,5.7-15.9,14-18c0.6-0.1,0.9-0.7,0.8-1.3C25,2.1,24.4,1.8,23.8,1.9z
			 M21,53.5l-2.1-6.1c-0.2-0.5-0.7-0.8-1.3-0.7l-6,1.3l5.2-9.2c3,2.2,6.6,3.6,10.4,3.9L21,53.5z M40.4,46.8
			c-0.5-0.1-1.1,0.2-1.3,0.7L37,53.5l-6.1-10.8c3.7-0.3,7.3-1.7,10.4-3.9l5.2,9.2L40.4,46.8z"/>
	</g>
</g>
<g id="Layer_4" class="st0">
	<polyline class="st6" points="16.6,36.3 9.5,47.8 17.7,46.8 20.5,54.5 28.9,41 	"/>
	<polyline class="st6" points="42.9,36.5 50,48 41.8,47 39,54.7 30.6,41.2 	"/>
	
		<ellipse transform="matrix(1.907350e-02 -0.9998 0.9998 1.907350e-02 7.4284 50.1216)" class="st7" cx="29.3" cy="21.3" rx="19.8" ry="20"/>
	<circle class="st8" cx="28.9" cy="22" r="14.5"/>
	<path class="st8" d="M20.7,4.3C9,10.5,5.4,26.7,15.3,36.1c11.2,10.6,29.8,4.7,32.7-10.5c1.6-8.2-2-16.7-9.4-20.8"/>
	<circle class="st9" cx="38.7" cy="4.9" r="0.5"/>
	<circle class="st9" cx="20.7" cy="4.3" r="0.5"/>
	<polygon class="st8" points="24.2,23.9 23.5,29.6 28.9,27.2 34.3,29.6 33.8,23.9 38.1,19.8 31.8,18.2 29.2,12.7 26,18 19.9,19.5 	
		"/>
</g>
</svg>
