<?xml version="1.0" encoding="utf-8"?>
<!-- Generator: Adobe Illustrator 24.1.2, SVG Export Plug-In . SVG Version: 6.00 Build 0)  -->
<svg version="1.1" id="Layer_1" xmlns="http://www.w3.org/2000/svg" xmlns:xlink="http://www.w3.org/1999/xlink" x="0px" y="0px"
	 viewBox="0 0 58 58" style="enable-background:new 0 0 58 58;" xml:space="preserve">
<style type="text/css">
	.st0{display:none;}
	.st1{display:inline;}
	.st2{display:inline;fill:#FFFFFF;stroke:#000000;stroke-width:1;stroke-miterlimit:10;}
	.st3{display:inline;fill:none;stroke:#000000;stroke-width:1;stroke-miterlimit:10;}
	.st4{display:inline;fill:none;stroke:#000000;stroke-miterlimit:10;}
	.st5{display:none;fill:none;stroke:#000000;stroke-miterlimit:10;}
	.st6{fill:none;stroke:#DCDCDC;stroke-width:7;stroke-miterlimit:10;}
</style>
<g id="Capa_1" class="st0">
	<g>
		<path class="st1" d="M4.5,15.1c-2.3,0.5-4,2.5-4,4.9c0,0.6,0.4,1,1,1s1-0.4,1-1c0-1.7,1.3-3,3-3s3,1.3,3,3c0,0.6,0.4,1,1,1
			s1-0.4,1-1c0-2.4-1.7-4.4-4-4.9V2h9v54h-9V42v-3c0-0.6-0.4-1-1-1s-1,0.4-1,1v1.8c-1.2-0.4-2-1.5-2-2.8c0-1.7,1.3-3,3-3s3,1.3,3,3
			c0,0.6,0.4,1,1,1s1-0.4,1-1c0-2.8-2.2-5-5-5s-5,2.2-5,5c0,2.4,1.7,4.4,4,4.9V58h13h40V0h-40h-13V15.1z M55.5,2v54h-38V2H55.5z"/>
		<path class="st1" d="M2.5,32c0-1.7,1.3-3,3-3s3,1.3,3,3c0,0.6,0.4,1,1,1s1-0.4,1-1c0-2.8-2.2-5-5-5s-5,2.2-5,5c0,0.6,0.4,1,1,1
			S2.5,32.6,2.5,32z"/>
		<path class="st1" d="M2.5,26c0-1.7,1.3-3,3-3s3,1.3,3,3c0,0.6,0.4,1,1,1s1-0.4,1-1c0-2.8-2.2-5-5-5s-5,2.2-5,5c0,0.6,0.4,1,1,1
			S2.5,26.6,2.5,26z"/>
		<path class="st1" d="M33.5,45c0-3.3-2.7-6-6-6s-6,2.7-6,6s2.7,6,6,6S33.5,48.3,33.5,45z M23.5,45c0-2.2,1.8-4,4-4s4,1.8,4,4
			s-1.8,4-4,4S23.5,47.2,23.5,45z"/>
		<path class="st1" d="M33.5,29c0-3.3-2.7-6-6-6s-6,2.7-6,6s2.7,6,6,6S33.5,32.3,33.5,29z M23.5,29c0-2.2,1.8-4,4-4s4,1.8,4,4
			s-1.8,4-4,4S23.5,31.2,23.5,29z"/>
		<path class="st1" d="M33.5,13c0-3.3-2.7-6-6-6s-6,2.7-6,6s2.7,6,6,6S33.5,16.3,33.5,13z M23.5,13c0-2.2,1.8-4,4-4s4,1.8,4,4
			s-1.8,4-4,4S23.5,15.2,23.5,13z"/>
		<path class="st1" d="M49.5,45c0-3.3-2.7-6-6-6s-6,2.7-6,6s2.7,6,6,6S49.5,48.3,49.5,45z M39.5,45c0-2.2,1.8-4,4-4s4,1.8,4,4
			s-1.8,4-4,4S39.5,47.2,39.5,45z"/>
		<path class="st1" d="M49.5,29c0-3.3-2.7-6-6-6s-6,2.7-6,6s2.7,6,6,6S49.5,32.3,49.5,29z M39.5,29c0-2.2,1.8-4,4-4s4,1.8,4,4
			s-1.8,4-4,4S39.5,31.2,39.5,29z"/>
		<circle class="st1" cx="48.5" cy="13" r="1"/>
		<circle class="st1" cx="47.5" cy="17" r="1"/>
		<circle class="st1" cx="47.5" cy="9" r="1"/>
		<circle class="st1" cx="39.5" cy="9" r="1"/>
		<circle class="st1" cx="39.5" cy="17" r="1"/>
		<circle class="st1" cx="41.5" cy="15" r="1"/>
		<circle class="st1" cx="41.5" cy="11" r="1"/>
		<circle class="st1" cx="43.5" cy="13" r="1"/>
		<circle class="st1" cx="45.5" cy="15" r="1"/>
		<circle class="st1" cx="45.5" cy="11" r="1"/>
		<circle class="st1" cx="43.5" cy="8" r="1"/>
		<circle class="st1" cx="43.5" cy="18" r="1"/>
		<circle class="st1" cx="38.5" cy="13" r="1"/>
	</g>
	<line class="st2" x1="31.1" y1="51.7" x2="31.1" y2="5.8"/>
</g>
<g id="Layer_2_1_" class="st0">
	<line class="st3" x1="31.1" y1="51.5" x2="43.5" y2="39"/>
	<line class="st3" x1="18.6" y1="39" x2="31.1" y2="51.4"/>
	<circle class="st4" cx="43.5" cy="39" r="0.5"/>
	<circle class="st4" cx="18.7" cy="39.1" r="0.5"/>
	<circle class="st4" cx="31.1" cy="5.8" r="0.5"/>
</g>
<polyline class="st5" points="31.9,51.4 31.2,52.1 30.4,51.4 "/>
<circle class="st6" cx="29" cy="29" r="17.2"/>
</svg>
