<?xml version="1.0" encoding="utf-8"?>
<!-- Generator: Adobe Illustrator 24.1.2, SVG Export Plug-In . SVG Version: 6.00 Build 0)  -->
<svg version="1.1" xmlns="http://www.w3.org/2000/svg" xmlns:xlink="http://www.w3.org/1999/xlink" x="0px" y="0px"
	 viewBox="0 0 58 58" style="enable-background:new 0 0 58 58;" xml:space="preserve">
<style type="text/css">
	.st0{display:none;}
	.st1{display:inline;}
	.st2{fill:none;stroke:#dcdcdc;stroke-width:2;stroke-miterlimit:10;}
</style>
<g id="Capa_1">
	<g class="st0">
		<path class="st1" d="M42.9,4.5c-0.5-2.3-2.5-4-4.9-4c-0.6,0-1,0.4-1,1s0.4,1,1,1c1.7,0,3,1.3,3,3s-1.3,3-3,3c-0.6,0-1,0.4-1,1
			s0.4,1,1,1c2.4,0,4.4-1.7,4.9-4H56v9H2v-9h14h3c0.6,0,1-0.4,1-1s-0.4-1-1-1h-1.8c0.4-1.2,1.5-2,2.8-2c1.7,0,3,1.3,3,3s-1.3,3-3,3
			c-0.6,0-1,0.4-1,1s0.4,1,1,1c2.8,0,5-2.2,5-5s-2.2-5-5-5c-2.4,0-4.4,1.7-4.9,4H0v13v40h58v-40v-13H42.9z M56,55.5H2v-38h54V55.5z"
			/>
		<path class="st1" d="M26,2.5c1.7,0,3,1.3,3,3s-1.3,3-3,3c-0.6,0-1,0.4-1,1s0.4,1,1,1c2.8,0,5-2.2,5-5s-2.2-5-5-5c-0.6,0-1,0.4-1,1
			S25.4,2.5,26,2.5z"/>
		<path class="st1" d="M32,2.5c1.7,0,3,1.3,3,3s-1.3,3-3,3c-0.6,0-1,0.4-1,1s0.4,1,1,1c2.8,0,5-2.2,5-5s-2.2-5-5-5c-0.6,0-1,0.4-1,1
			S31.4,2.5,32,2.5z"/>
		<path class="st1" d="M13,33.5c3.3,0,6-2.7,6-6s-2.7-6-6-6s-6,2.7-6,6S9.7,33.5,13,33.5z M13,23.5c2.2,0,4,1.8,4,4s-1.8,4-4,4
			s-4-1.8-4-4S10.8,23.5,13,23.5z"/>
		<path class="st1" d="M29,33.5c3.3,0,6-2.7,6-6s-2.7-6-6-6s-6,2.7-6,6S25.7,33.5,29,33.5z M29,23.5c2.2,0,4,1.8,4,4s-1.8,4-4,4
			s-4-1.8-4-4S26.8,23.5,29,23.5z"/>
		<path class="st1" d="M45,33.5c3.3,0,6-2.7,6-6s-2.7-6-6-6s-6,2.7-6,6S41.7,33.5,45,33.5z M45,23.5c2.2,0,4,1.8,4,4s-1.8,4-4,4
			s-4-1.8-4-4S42.8,23.5,45,23.5z"/>
		<path class="st1" d="M13,49.5c3.3,0,6-2.7,6-6s-2.7-6-6-6s-6,2.7-6,6S9.7,49.5,13,49.5z M13,39.5c2.2,0,4,1.8,4,4s-1.8,4-4,4
			s-4-1.8-4-4S10.8,39.5,13,39.5z"/>
		<path class="st1" d="M29,49.5c3.3,0,6-2.7,6-6s-2.7-6-6-6s-6,2.7-6,6S25.7,49.5,29,49.5z M29,39.5c2.2,0,4,1.8,4,4s-1.8,4-4,4
			s-4-1.8-4-4S26.8,39.5,29,39.5z"/>
		<circle class="st1" cx="45" cy="48.5" r="1"/>
		<circle class="st1" cx="41" cy="47.5" r="1"/>
		<circle class="st1" cx="49" cy="47.5" r="1"/>
		<circle class="st1" cx="49" cy="39.5" r="1"/>
		<circle class="st1" cx="41" cy="39.5" r="1"/>
		<circle class="st1" cx="43" cy="41.5" r="1"/>
		<circle class="st1" cx="47" cy="41.5" r="1"/>
		<circle class="st1" cx="45" cy="43.5" r="1"/>
		<circle class="st1" cx="43" cy="45.5" r="1"/>
		<circle class="st1" cx="47" cy="45.5" r="1"/>
		<circle class="st1" cx="50" cy="43.5" r="1"/>
		<circle class="st1" cx="40" cy="43.5" r="1"/>
		<circle class="st1" cx="45" cy="38.5" r="1"/>
	</g>
	<line class="st2" x1="6.3" y1="31.1" x2="52.2" y2="31.1"/>
</g>
<g id="Layer_3">
	<polygon points="5.9,31.8 5.2,31.1 5.9,30.3 6.7,30.9 	"/>
</g>
<g id="Layer_2">
	<line class="st2" x1="6.5" y1="31.1" x2="19" y2="43.5"/>
	<line class="st2" x1="19" y1="18.6" x2="6.6" y2="31.1"/>
	<circle cx="52.2" cy="31.1" r="1"/>
	<circle cx="19" cy="18.6" r="1"/>
	<circle cx="19" cy="43.5" r="1"/>
</g>
</svg>
