<?xml version="1.0" encoding="utf-8"?>
<!-- Generator: Adobe Illustrator 24.1.2, SVG Export Plug-In . SVG Version: 6.00 Build 0)  -->
<svg version="1.1" id="Layer_1" xmlns="http://www.w3.org/2000/svg" xmlns:xlink="http://www.w3.org/1999/xlink" x="0px" y="0px"
	 viewBox="0 0 58 58" style="enable-background:new 0 0 58 58;" xml:space="preserve">
<style type="text/css">
	.st0{display:none;}
	.st1{display:inline;}
	.st2{fill:#FFFFFF;stroke:#05A115;stroke-width:2;stroke-miterlimit:10;}
	.st3{fill:none;stroke:#05A115;stroke-width:2;stroke-miterlimit:10;}
	.st4{fill:none;stroke:#05A115;stroke-miterlimit:10;}
</style>
<g id="Capa_1">
	<g class="st0">
		<path class="st1" d="M53.5,42.9c2.3-0.5,4-2.5,4-4.9c0-0.6-0.4-1-1-1s-1,0.4-1,1c0,1.7-1.3,3-3,3s-3-1.3-3-3c0-0.6-0.4-1-1-1
			s-1,0.4-1,1c0,2.4,1.7,4.4,4,4.9V56h-9V2h9v14v3c0,0.6,0.4,1,1,1s1-0.4,1-1v-1.8c1.2,0.4,2,1.5,2,2.8c0,1.7-1.3,3-3,3s-3-1.3-3-3
			c0-0.6-0.4-1-1-1s-1,0.4-1,1c0,2.8,2.2,5,5,5s5-2.2,5-5c0-2.4-1.7-4.4-4-4.9V0h-13h-40v58h40h13V42.9z M2.5,56V2h38v54H2.5z"/>
		<path class="st1" d="M55.5,26c0,1.7-1.3,3-3,3s-3-1.3-3-3c0-0.6-0.4-1-1-1s-1,0.4-1,1c0,2.8,2.2,5,5,5s5-2.2,5-5c0-0.6-0.4-1-1-1
			S55.5,25.4,55.5,26z"/>
		<path class="st1" d="M55.5,32c0,1.7-1.3,3-3,3s-3-1.3-3-3c0-0.6-0.4-1-1-1s-1,0.4-1,1c0,2.8,2.2,5,5,5s5-2.2,5-5c0-0.6-0.4-1-1-1
			S55.5,31.4,55.5,32z"/>
		<path class="st1" d="M24.5,13c0,3.3,2.7,6,6,6s6-2.7,6-6s-2.7-6-6-6S24.5,9.7,24.5,13z M34.5,13c0,2.2-1.8,4-4,4s-4-1.8-4-4
			s1.8-4,4-4S34.5,10.8,34.5,13z"/>
		<path class="st1" d="M24.5,29c0,3.3,2.7,6,6,6s6-2.7,6-6s-2.7-6-6-6S24.5,25.7,24.5,29z M34.5,29c0,2.2-1.8,4-4,4s-4-1.8-4-4
			s1.8-4,4-4S34.5,26.8,34.5,29z"/>
		<path class="st1" d="M24.5,45c0,3.3,2.7,6,6,6s6-2.7,6-6s-2.7-6-6-6S24.5,41.7,24.5,45z M34.5,45c0,2.2-1.8,4-4,4s-4-1.8-4-4
			s1.8-4,4-4S34.5,42.8,34.5,45z"/>
		<path class="st1" d="M8.5,13c0,3.3,2.7,6,6,6s6-2.7,6-6s-2.7-6-6-6S8.5,9.7,8.5,13z M18.5,13c0,2.2-1.8,4-4,4s-4-1.8-4-4
			s1.8-4,4-4S18.5,10.8,18.5,13z"/>
		<path class="st1" d="M8.5,29c0,3.3,2.7,6,6,6s6-2.7,6-6s-2.7-6-6-6S8.5,25.7,8.5,29z M18.5,29c0,2.2-1.8,4-4,4s-4-1.8-4-4
			s1.8-4,4-4S18.5,26.8,18.5,29z"/>
		<circle class="st1" cx="9.5" cy="45" r="1"/>
		<circle class="st1" cx="10.5" cy="41" r="1"/>
		<circle class="st1" cx="10.5" cy="49" r="1"/>
		<circle class="st1" cx="18.5" cy="49" r="1"/>
		<circle class="st1" cx="18.5" cy="41" r="1"/>
		<circle class="st1" cx="16.5" cy="43" r="1"/>
		<circle class="st1" cx="16.5" cy="47" r="1"/>
		<circle class="st1" cx="14.5" cy="45" r="1"/>
		<circle class="st1" cx="12.5" cy="43" r="1"/>
		<circle class="st1" cx="12.5" cy="47" r="1"/>
		<circle class="st1" cx="14.5" cy="50" r="1"/>
		<circle class="st1" cx="14.5" cy="40" r="1"/>
		<circle class="st1" cx="19.5" cy="45" r="1"/>
	</g>
	<line class="st2" x1="26.9" y1="6.3" x2="26.9" y2="52.2"/>
</g>
<g id="Layer_2_1_">
	<line class="st3" x1="26.9" y1="6.5" x2="14.5" y2="19"/>
	<line class="st3" x1="39.4" y1="19" x2="26.9" y2="6.6"/>
	<circle class="st4" cx="14.5" cy="19" r="0.5"/>
	<circle class="st4" cx="39.3" cy="18.9" r="0.5"/>
	<circle class="st4" cx="26.9" cy="52.2" r="0.5"/>
</g>
<polyline class="st4" points="26.1,6.6 26.8,5.9 27.6,6.6 "/>
</svg>
