<?xml version="1.0" encoding="utf-8"?>
<!-- Generator: Adobe Illustrator 16.0.3, SVG Export Plug-In . SVG Version: 6.00 Build 0)  -->
<!DOCTYPE svg PUBLIC "-//W3C//DTD SVG 1.1//EN" "http://www.w3.org/Graphics/SVG/1.1/DTD/svg11.dtd">
<svg version="1.1" id="Capa_1" xmlns="http://www.w3.org/2000/svg" xmlns:xlink="http://www.w3.org/1999/xlink" x="0px" y="0px"
	 width="1000px" height="1000px" viewBox="0 0 1000 1000" enable-background="new 0 0 1000 1000" xml:space="preserve">
<path fill="#dcdcdc" d="M210.973,702.109"/>
<path fill="#dcdcdc" d="M210.973,695.873"/>
<path fill="#dcdcdc" d="M624.731,397.12"/>
<path fill="#dcdcdc" d="M216.387,558.627"/>
<path fill="#dcdcdc" d="M93.102,291.066v276.571l52.321,60.306h299.492c0,0,10.825,9.702-3.608,15.249s-281.451,0-281.451,0
	l32.475,37.432h256.481c0,0,9.934,9.012-4.5,15.251H210.973l60.439,69.661h304.003c0,0,282.654-82.831,270.627-215.225
	c0,0-13.229-118.53-86-148.338l36.685-4.853l-171.995-40.897l29.467,83.181l40.896-23.569c0,0,140.724,62.387-18.645,140.02h-372.26
	V85.89l-55.93,64.464v408.273h-31.873V173.921l-45.105,51.988v332.718H148.43V244.623L93.102,291.066z"/>
<path fill="#dcdcdc" d="M624.731,356.223"/>
<rect x="405.223" y="780.436" fill="#dcdcdc" width="129.301" height="101.204"/>
<path fill="#dcdcdc" d="M417.854,425.711"/>
<polygon fill="#dcdcdc" points="417.854,542.684 417.854,310.82 417.854,180.853 521.593,180.853 521.593,542.684 "/>
<polyline fill="#ADADAD" points="417.854,425.711 440.404,374.245 481.9,374.245 490.92,374.245 499.04,374.245 519.488,429.351 
	521.593,180.853 414.244,180.853 417.854,425.711 "/>
<path fill="#dcdcdc" d="M324.637,374.245l93.217,55.105V233.532h-24.057c0,0-31.272-5.544-26.462-35.351
	c0,0-0.6-18.714,29.469-13.863l30.671,4.159c0,0,7.816,1.386,10.224,26.339v88.032l5.413,3.584h7.818h4.812h40.293v-93.696
	c0,0-1.804-23.567,9.022-24.954l48.711-4.269c0,0,23.453-8.208,13.831,28.53c0,0-1.802,18.023-48.108,28.419V429.35l91.41-55.105
	V163.523c0,0-9.625-97.736-105.847-110.213h-72.767c0,0-97.425,11.09-107.649,113.679L324.637,374.245L324.637,374.245z"/>
</svg>
